<svg stroke="white" fill="white" stroke-width="0" viewBox="0 0 512 512" height="1em" width="1em" xmlns="http://www.w3.org/2000/svg"><path d="M104 496H72a24 24 0 0 1-24-24V328a24 24 0 0 1 24-24h32a24 24 0 0 1 24 24v144a24 24 0 0 1-24 24zm224 0h-32a24 24 0 0 1-24-24V232a24 24 0 0 1 24-24h32a24 24 0 0 1 24 24v240a24 24 0 0 1-24 24zm112 0h-32a24 24 0 0 1-24-24V120a24 24 0 0 1 24-24h32a24 24 0 0 1 24 24v352a24 24 0 0 1-24 24zm-224 0h-32a24 24 0 0 1-24-24V40a24 24 0 0 1 24-24h32a24 24 0 0 1 24 24v432a24 24 0 0 1-24 24z"></path></svg>